<svg width="305" height="120" viewBox="0 0 305 120" fill="none" xmlns="http://www.w3.org/2000/svg">
<path d="M32.5276 94.4588C31.8199 91.4652 30.3087 89.158 27.9942 87.5277C25.6797 85.907 22.7531 85.0966 19.1952 85.0966C14.3844 85.0966 10.6066 86.4885 7.85215 89.282C5.09768 92.0754 3.71088 95.908 3.71088 100.78C3.71088 105.652 5.04986 109.332 7.72781 112.163C10.4058 114.995 13.9923 116.415 18.4779 116.415C22.1792 116.415 25.3258 115.414 27.9273 113.412C30.5287 111.41 32.2024 108.712 32.9484 105.327H36.841C35.9994 109.837 33.9431 113.412 30.6722 116.043C27.4012 118.675 23.3747 120 18.5831 120C12.9498 120 8.44512 118.255 5.06899 114.766C1.69285 111.277 0 106.614 0 100.789C0 94.9641 1.71198 90.1114 5.12637 86.6887C8.55033 83.2661 13.2559 81.55 19.2526 81.55C23.9773 81.55 27.8412 82.6941 30.8443 84.9822C33.8474 87.2703 35.6551 90.4355 36.248 94.4684H32.5276V94.4588Z" fill="#8BA4BE"/>
<path d="M56.2466 82.5034C60.407 82.5034 63.5728 82.7608 65.7343 83.2661C67.8957 83.7809 69.7703 84.639 71.358 85.8593C73.309 87.3752 74.7532 89.3582 75.7096 91.8084C76.666 94.2586 77.1347 97.2523 77.1347 100.77C77.1347 104.288 76.6565 107.282 75.7001 109.732C74.7437 112.182 73.2612 114.184 71.2623 115.729C69.7225 116.911 67.8766 117.76 65.7247 118.265C63.5728 118.77 60.407 119.018 56.2466 119.018H42.8951V82.4939H56.2466V82.5034ZM55.4241 85.783H46.5582V115.548H56.2466C59.4506 115.548 61.9373 115.367 63.7162 115.004C65.4951 114.642 67.0063 114.041 68.2592 113.202C70.0094 112.049 71.3006 110.447 72.1326 108.397C72.9647 106.348 73.3856 103.716 73.3856 100.503C73.3856 97.2904 72.9647 94.9165 72.1231 92.8762C71.2814 90.836 69.9903 89.2343 68.2592 88.0807C67.0063 87.2608 65.4665 86.6697 63.6493 86.3169C61.8321 85.9642 59.0872 85.783 55.4241 85.783Z" fill="#8BA4BE"/>
<path d="M114.741 94.4588C114.033 91.4652 112.522 89.158 110.207 87.5277C107.893 85.907 104.966 85.0966 101.408 85.0966C96.5977 85.0966 92.8199 86.4885 90.0654 89.282C87.3109 92.0754 85.9241 95.908 85.9241 100.78C85.9241 105.652 87.2631 109.332 89.9411 112.163C92.619 114.995 96.2056 116.415 100.691 116.415C104.392 116.415 107.539 115.414 110.14 113.412C112.742 111.41 114.416 108.712 115.162 105.327H119.054C118.213 109.837 116.156 113.412 112.885 116.043C109.614 118.675 105.588 120 100.796 120C95.1631 120 90.6584 118.255 87.2822 114.766C83.9061 111.277 82.2132 106.614 82.2132 100.789C82.2132 94.9641 83.9252 90.1114 87.3396 86.6887C90.7636 83.2661 95.4691 81.55 101.466 81.55C106.19 81.55 110.054 82.6941 113.058 84.9822C116.061 87.2703 117.868 90.4355 118.461 94.4684H114.741V94.4588Z" fill="#B8D3EF"/>
<path d="M121.177 119.028L138.077 82.5034H142.286L158.984 119.028H155.293L150.166 107.739H130.12L124.946 119.028H121.177ZM148.531 104.212L140.153 85.5447L131.727 104.212H148.531Z" fill="#B8D3EF"/>
<path d="M163.776 82.5034H178.687C183.258 82.5034 186.654 83.39 188.872 85.1633C191.082 86.9366 192.191 89.6442 192.191 93.3052C192.191 96.9662 191.082 99.6452 188.872 101.419C186.663 103.192 183.268 104.069 178.687 104.069H167.439V119.037H163.776V82.5034ZM167.439 100.503H178.046C181.929 100.503 184.616 99.9599 186.099 98.873C187.581 97.7861 188.327 95.908 188.327 93.2385C188.327 90.569 187.581 88.6432 186.089 87.5468C184.597 86.4504 181.91 85.907 178.046 85.907H167.439V100.503Z" fill="#B8D3EF"/>
<path d="M198.876 119.028V82.5034H202.54V119.028H198.876Z" fill="#B8D3EF"/>
<path d="M221.352 119.028V85.8593H207.207V82.5034H239.17V85.8593H225.025V119.028H221.352Z" fill="#B8D3EF"/>
<path d="M235.717 119.028L252.617 82.5034H256.826L273.524 119.028H269.833L264.706 107.739H244.66L239.486 119.028H235.717ZM263.071 104.212L254.693 85.5447L246.267 104.212H263.071Z" fill="#B8D3EF"/>
<path d="M278.316 119.028V82.5034H281.979V115.595H305V119.028H278.316Z" fill="#B8D3EF"/>
<path d="M168.73 7.43389L162.122 18.3025C160.773 20.3236 159.434 22.3639 158.085 24.3851C155.704 27.9889 152.165 29.2664 147.574 28.599C137.016 27.045 126.447 25.5387 115.889 24.0228C112.082 23.4793 110.456 24.8046 110.437 28.5037C110.408 33.0037 110.399 37.5036 110.447 42.0131C110.485 45.7504 112.12 47.5618 115.841 48.1148C117.514 48.3627 119.179 48.582 120.843 48.8203C122.516 49.0491 124.181 49.297 125.854 49.5354C129.183 50.012 132.521 50.4601 135.858 50.975C138.489 51.3849 140.373 50.5745 141.673 48.458C141.826 48.2006 141.989 47.9432 142.152 47.6953L135.352 58.8785L135.313 58.9357C134.644 59.9272 133.955 60.9092 133.295 61.9103C131.162 65.1327 127.968 66.4675 123.875 66.0194C120.785 65.6857 117.677 65.1995 114.578 64.6942C104.067 62.959 95.6604 54.7694 93.9293 44.2345C92.839 37.5894 93.3937 31.0588 93.5659 24.5376C93.8624 12.9635 103.197 5.49852 114.894 7.11927C122.287 8.13939 129.68 9.22625 137.064 10.2845V10.2559C144.772 11.3618 152.481 12.4106 160.19 13.5928C162.944 14.0218 164.905 13.2781 166.291 11.1426C167.104 9.90315 167.908 8.66375 168.73 7.43389Z" fill="#8BA4BE"/>
<path d="M210.612 40.4019C210.65 53.0915 201.717 60.7472 188.93 58.9262C174.23 56.8287 159.53 54.7599 144.83 52.5766C141.377 52.0618 138.919 52.8913 137.303 55.7705C136.71 56.8383 136.04 57.8679 135.352 58.8785L142.152 47.6953C143.452 45.6265 144.83 43.6148 146.188 41.6032C148.397 38.3426 151.601 36.9316 155.838 37.5322C166.33 39.0195 176.812 40.5259 187.294 42.0322C191.981 42.6996 193.425 41.4888 193.434 36.8744C193.444 32.527 193.473 28.1891 193.434 23.8416C193.406 20.4476 191.933 18.6362 188.538 18.1023C181.632 17.0249 174.717 16.1002 167.812 15.1086C165.536 14.7845 163.891 15.633 162.743 17.3586C162.533 17.6732 162.322 17.9879 162.122 18.3025L168.73 7.43389L168.788 7.34808C169.591 6.14682 170.414 4.95509 171.255 3.78243C173.445 0.722062 176.678 -0.412466 180.685 0.130964C183.708 0.540919 186.73 0.98901 189.752 1.4371C201.258 3.16273 210.487 13.5451 210.612 24.9857C210.669 30.134 210.593 35.2632 210.612 40.4019Z" fill="#B8D3EF"/>
</svg>
