<svg id="Layer_1" data-name="Layer 1" xmlns="http://www.w3.org/2000/svg" viewBox="0 0 256 256"><path d="M164.6,71.94,150.18,95.73c-2.94,4.42-5.86,8.88-8.8,13.31-5.2,7.88-12.92,10.68-22.93,9.22q-34.54-5.1-69.12-10c-8.3-1.19-11.85,1.71-11.89,9.81-.06,9.84-.08,19.69,0,29.56.09,8.18,3.65,12.14,11.77,13.35,3.65.54,7.28,1,10.91,1.54s7.28,1.05,10.93,1.57c7.26,1,14.54,2,21.82,3.15,5.74.9,9.85-.88,12.69-5.51.33-.56.69-1.12,1-1.67L91.79,184.51l-.08.13c-1.47,2.17-3,4.32-4.41,6.51-4.65,7-11.62,10-20.55,9-6.74-.73-13.52-1.79-20.27-2.9a54.61,54.61,0,0,1-45-44.77C-.94,137.93.27,123.64.64,109.37c.65-25.33,21-41.66,46.52-38.12,16.13,2.24,32.26,4.61,48.36,6.93v-.06c16.82,2.42,33.63,4.71,50.45,7.3,6,.94,10.28-.69,13.31-5.36C161.05,77.35,162.8,74.63,164.6,71.94Z" style="fill:#708ba3"/><path d="M256,144.08c.09,27.77-19.4,44.52-47.29,40.54-32.07-4.59-64.13-9.12-96.2-13.9-7.53-1.12-12.89.69-16.42,7-1.29,2.34-2.75,4.59-4.25,6.8L106.62,160c2.84-4.52,5.84-8.93,8.8-13.33,4.82-7.13,11.81-10.22,21.06-8.91q34.32,4.89,68.61,9.85c10.22,1.46,13.37-1.19,13.39-11.29,0-9.51.09-19,0-28.51-.06-7.43-3.27-11.39-10.68-12.56-15.06-2.36-30.14-4.38-45.21-6.55a10.51,10.51,0,0,0-11.05,4.92c-.46.69-.92,1.38-1.36,2.07L164.6,71.94l.12-.19c1.75-2.62,3.55-5.23,5.39-7.8,4.77-6.69,11.82-9.18,20.56-8,6.6.9,13.19,1.88,19.78,2.86,25.1,3.78,45.23,26.5,45.5,51.53C256.08,121.62,255.91,132.84,256,144.08Z" style="fill:#9bbad3"/></svg>