<svg width="196" height="25" viewBox="0 0 196 25" fill="none" xmlns="http://www.w3.org/2000/svg">
<g clip-path="url(#clip0_153_292)">
<path d="M66.2062 12.9023C65.8754 14.4193 65.1504 15.5921 63.9949 16.4842C62.8485 17.3672 61.4347 17.8155 59.7943 17.8155C57.7779 17.8155 56.2191 17.2042 55.0273 15.9408C53.8491 14.691 53.251 12.9748 53.251 10.8419C53.251 8.7091 53.8673 6.92948 55.0817 5.69778C56.2916 4.46608 57.9954 3.84571 60.1342 3.84571C61.7156 3.84571 63.0297 4.20797 64.0402 4.91891C65.0507 5.62986 65.6942 6.61703 66.0068 7.94382L66.0884 8.2925H68.7302L68.6531 7.77174C68.3541 5.74306 67.4342 4.13099 65.9207 2.97174C64.4208 1.82608 62.4814 1.24646 60.1523 1.24646C57.2024 1.24646 54.8415 2.11137 53.1423 3.81854C51.443 5.52571 50.582 7.88495 50.582 10.8374C50.582 13.7899 51.4339 16.054 53.1105 17.7929C54.7917 19.5363 57.0574 20.4193 59.8396 20.4193C62.205 20.4193 64.226 19.7536 65.8528 18.4404C67.4795 17.1272 68.5172 15.3204 68.9386 13.0789L69.0383 12.5446H66.2832L66.2062 12.9023Z" fill="#8BA4BE"/>
<path d="M85.1246 3.39743C84.3271 2.78158 83.3709 2.34234 82.2879 2.08422C81.2321 1.83517 79.6824 1.70837 77.6886 1.70837H70.9097V19.962H77.6886C79.7141 19.962 81.2185 19.8397 82.2834 19.5906C83.3619 19.3371 84.3044 18.9069 85.0793 18.3046C86.0852 17.5212 86.842 16.4978 87.3268 15.2616C87.7981 14.048 88.0383 12.5627 88.0383 10.8374C88.0383 9.11215 87.8026 7.62686 87.3314 6.41781C86.8556 5.18158 86.1124 4.16271 85.1246 3.39743ZM77.6841 17.4035H73.5469V4.17177H77.2944C78.9936 4.17177 80.276 4.25328 81.1053 4.4163C81.9028 4.57026 82.5825 4.8329 83.1263 5.18611C83.8694 5.67969 84.4268 6.37705 84.7893 7.26007C85.1654 8.17026 85.3557 9.33403 85.3557 10.7106C85.3557 12.1688 85.1654 13.3733 84.7938 14.288C84.4358 15.171 83.8739 15.8684 83.1263 16.362C82.5825 16.7242 81.9118 16.9914 81.1324 17.1499C80.3259 17.3174 79.1658 17.3989 77.6841 17.3989V17.4035Z" fill="#8BA4BE"/>
<path d="M107.99 12.5491H105.235L105.158 12.9068C104.827 14.4238 104.102 15.5966 102.947 16.4887C101.8 17.3717 100.386 17.82 98.746 17.82C96.7295 17.82 95.1707 17.2087 93.979 15.9453C92.8008 14.6955 92.2027 12.9793 92.2027 10.8464C92.2027 8.71362 92.8189 6.934 94.0333 5.7023C95.2432 4.4706 96.947 3.85022 99.0858 3.85022C100.667 3.85022 101.981 4.21249 102.992 4.92343C104.002 5.63437 104.646 6.62154 104.958 7.94833L105.04 8.29701H107.682L107.605 7.77626C107.306 5.74758 106.386 4.1355 104.872 2.97626C103.372 1.8306 101.433 1.25098 99.1039 1.25098C96.154 1.25098 93.7932 2.11588 92.0939 3.82305C90.3946 5.53022 89.5337 7.88947 89.5337 10.8419C89.5337 13.7944 90.3856 16.0585 92.0622 17.7974C93.7433 19.5408 96.009 20.4238 98.7913 20.4238C101.157 20.4238 103.178 19.7581 104.804 18.4449C106.431 17.1317 107.469 15.3249 107.89 13.0834L107.99 12.5491Z" fill="#B8D3EF"/>
<path d="M116.169 1.70837L107.745 19.962H110.527L112.979 14.6005H121.892L124.321 19.962H127.067L118.743 1.70837H116.164H116.169ZM114.152 12.0193L117.442 4.71064L120.714 12.0193H114.152Z" fill="#B8D3EF"/>
<path d="M140.806 3.06686C139.678 2.16573 137.96 1.70837 135.699 1.70837H128.182V19.962H130.823V12.8525H135.699C137.965 12.8525 139.682 12.3952 140.806 11.494C141.962 10.5657 142.546 9.1529 142.546 7.28724C142.546 5.42158 141.962 3.99517 140.806 3.06686ZM130.823 4.23064H135.396C137.117 4.23064 138.309 4.46158 138.939 4.92347C139.519 5.34913 139.818 6.13705 139.818 7.2646C139.818 8.39215 139.524 9.14837 138.948 9.57403C138.327 10.0314 137.131 10.2623 135.4 10.2623H130.828V4.23517L130.823 4.23064Z" fill="#B8D3EF"/>
<path d="M147.454 1.70837H144.812V19.962H147.454V1.70837Z" fill="#B8D3EF"/>
<path d="M164.805 1.70837H148.754V4.208H155.461V19.962H158.103V4.208H164.805V1.70837Z" fill="#B8D3EF"/>
<path d="M170.437 1.70837L162.013 19.962H164.795L167.247 14.6005H176.16L178.589 19.962H181.335L173.011 1.70837H170.432H170.437ZM168.421 12.0193L171.71 4.71064L174.982 12.0193H168.421Z" fill="#B8D3EF"/>
<path d="M185.091 17.4261V1.70837H182.445V19.962H195.994V17.4261H185.091Z" fill="#B8D3EF"/>
<path d="M27.3223 2.70009L24.9297 6.64425C24.4403 7.37783 23.9554 8.12047 23.4661 8.85406C22.6051 10.1627 21.3227 10.6246 19.6597 10.3846C15.8352 9.81858 12.0062 9.27519 8.18627 8.72274C6.80873 8.52349 6.21966 9.00802 6.21059 10.3484C6.20153 11.9831 6.197 13.6178 6.21059 15.2525C6.22419 16.611 6.8178 17.2676 8.16361 17.4669C8.77082 17.5575 9.37349 17.6344 9.97616 17.725C10.5834 17.8065 11.186 17.8971 11.7932 17.9831C12.9986 18.1552 14.2085 18.3182 15.4183 18.5039C16.3699 18.6533 17.0542 18.359 17.5254 17.5892C17.5798 17.4941 17.6387 17.4035 17.6976 17.3129L15.2371 21.3748L15.2235 21.3975C14.9788 21.7552 14.7296 22.1129 14.4939 22.4752C13.7236 23.6435 12.5636 24.128 11.0818 23.965C9.96257 23.8427 8.83879 23.6661 7.71501 23.485C3.90866 22.8556 0.863572 19.8805 0.238243 16.0586C-0.155987 13.645 0.0433936 11.2767 0.106833 8.9084C0.206523 4.70613 3.58693 1.99821 7.82376 2.58689C10.5018 2.95821 13.1798 3.35217 15.8534 3.73708V3.72802C18.6447 4.13104 21.436 4.51142 24.2273 4.9416C25.2242 5.09557 25.9357 4.8284 26.4386 4.05406C26.7332 3.60575 27.0232 3.15292 27.3223 2.70915V2.70009Z" fill="#8BA4BE"/>
<path d="M42.4888 14.6684C42.5024 19.2737 39.267 22.054 34.6359 21.3929C29.3115 20.6322 23.9872 19.8805 18.6628 19.088C17.4121 18.9023 16.524 19.2012 15.9349 20.2472C15.7219 20.6367 15.4773 21.008 15.228 21.3748L17.6886 17.3129C18.1598 16.5612 18.6583 15.8322 19.1522 15.1031C19.9542 13.9212 21.1143 13.405 22.6459 13.6269C26.4477 14.1657 30.2405 14.7137 34.0378 15.2616C35.737 15.5061 36.2581 15.0623 36.2627 13.3869C36.2627 11.8065 36.2763 10.2352 36.2627 8.6548C36.2536 7.4231 35.7189 6.7665 34.4909 6.57178C31.9896 6.18234 29.4837 5.84272 26.9869 5.48499C26.1622 5.36725 25.5686 5.67517 25.1517 6.30008C25.0747 6.41329 24.9977 6.5265 24.9252 6.64423L27.3177 2.70008L27.3404 2.66838C27.6304 2.23367 27.9295 1.79895 28.2331 1.37329C29.0261 0.263854 30.1952 -0.148222 31.6497 0.0464953C32.7463 0.195929 33.8384 0.358948 34.935 0.521967C39.1038 1.14687 42.4435 4.91895 42.4888 9.0714C42.5114 10.9416 42.4797 12.8027 42.4888 14.6684Z" fill="#B8D3EF"/>
</g>
<defs>
<clipPath id="clip0_153_292">
<rect width="196" height="24" fill="white" transform="translate(0 0.5)"/>
</clipPath>
</defs>
</svg>
