<svg width="42" height="42" viewBox="0 0 42 42" fill="none" xmlns="http://www.w3.org/2000/svg">
<path d="M7.38237 28.7622C5.44418 25.4948 4.7654 21.6323 5.47351 17.8999C6.18162 14.1676 8.2279 10.8221 11.2281 8.49164C14.2283 6.16123 17.9761 5.00621 21.7676 5.24347C25.5591 5.48074 29.1336 7.09396 31.8199 9.78023C34.5062 12.4665 36.1194 16.041 36.3567 19.8325C36.594 23.6241 35.439 27.3718 33.1086 30.372C30.7782 33.3722 27.4327 35.4185 23.7003 36.1267C19.968 36.8348 16.1054 36.156 12.8381 34.2179L12.8381 34.2177L7.4502 35.7571C7.22728 35.8208 6.99139 35.8237 6.76696 35.7656C6.54254 35.7074 6.33775 35.5903 6.17381 35.4264C6.00988 35.2624 5.89277 35.0576 5.83462 34.8332C5.77646 34.6088 5.77938 34.3729 5.84308 34.15L7.38249 28.762L7.38237 28.7622Z" stroke="#B8D3EF" stroke-width="2.6" stroke-linecap="round" stroke-linejoin="round"/>
<path d="M20.8001 22.75C21.8771 22.75 22.7501 21.8769 22.7501 20.8C22.7501 19.723 21.8771 18.85 20.8001 18.85C19.7231 18.85 18.8501 19.723 18.8501 20.8C18.8501 21.8769 19.7231 22.75 20.8001 22.75Z" fill="#B8D3EF"/>
<path d="M12.9998 22.75C14.0768 22.75 14.9498 21.8769 14.9498 20.8C14.9498 19.723 14.0768 18.85 12.9998 18.85C11.9228 18.85 11.0498 19.723 11.0498 20.8C11.0498 21.8769 11.9228 22.75 12.9998 22.75Z" fill="#B8D3EF"/>
<path d="M28.5999 22.75C29.6769 22.75 30.5499 21.8769 30.5499 20.8C30.5499 19.723 29.6769 18.85 28.5999 18.85C27.5229 18.85 26.6499 19.723 26.6499 20.8C26.6499 21.8769 27.5229 22.75 28.5999 22.75Z" fill="#B8D3EF"/>
</svg>
