<svg width="42" height="42" viewBox="0 0 42 42" fill="none" xmlns="http://www.w3.org/2000/svg">
<path d="M19.4984 17.2931L15.2734 9.97519C14.8433 9.22877 14.7271 8.34211 14.9505 7.51007C15.1738 6.67804 15.7183 5.96871 16.4644 5.53797C17.2104 5.10722 18.097 4.99032 18.9292 5.21294C19.7614 5.43556 20.4712 5.97949 20.9026 6.72519L27.4026 17.9835" stroke="#B8D3EF" stroke-width="2.6" stroke-linecap="round" stroke-linejoin="round"/>
<path d="M14.5195 21.669L8.34449 10.9735C8.13067 10.6039 7.99179 10.1958 7.93579 9.77242C7.87978 9.34909 7.90775 8.91886 8.0181 8.50634C8.12845 8.09382 8.31902 7.70709 8.5789 7.36826C8.83879 7.02942 9.1629 6.74512 9.53271 6.53161C9.90253 6.3181 10.3108 6.17956 10.7342 6.12391C11.1576 6.06826 11.5878 6.09659 12.0002 6.20728C12.4126 6.31798 12.7992 6.50887 13.1378 6.76903C13.4764 7.0292 13.7605 7.35355 13.9737 7.72355L19.4987 17.2931" stroke="#B8D3EF" stroke-width="2.6" stroke-linecap="round" stroke-linejoin="round"/>
<path d="M25.0237 26.8627C24.1617 25.3698 23.9281 23.5956 24.3743 21.9304C24.8205 20.2652 25.9099 18.8455 27.4028 17.9836L25.7778 15.169C25.564 14.7993 25.4251 14.3912 25.3691 13.9679C25.3131 13.5445 25.3411 13.1143 25.4514 12.7018C25.5618 12.2893 25.7523 11.9025 26.0122 11.5637C26.2721 11.2249 26.5962 10.9406 26.966 10.727C27.3359 10.5135 27.7441 10.375 28.1675 10.3193C28.5909 10.2637 29.0211 10.292 29.4335 10.4027C29.8459 10.5134 30.2325 10.7043 30.5711 10.9645C30.9097 11.2246 31.1938 11.549 31.407 11.919L34.657 17.5481C35.511 19.0266 36.0654 20.6589 36.2886 22.3517C36.5117 24.0444 36.3992 25.7646 35.9575 27.4139C35.5158 29.0632 34.7535 30.6093 33.7141 31.964C32.6748 33.3186 31.3788 34.4553 29.9001 35.309C28.4214 36.1627 26.7891 36.7168 25.0962 36.9395C23.4034 37.1623 21.6832 37.0494 20.034 36.6073C18.3848 36.1652 16.8389 35.4026 15.4845 34.3629C14.1301 33.3233 12.9937 32.027 12.1403 30.5481L5.96532 19.8527C5.5352 19.1063 5.41904 18.2196 5.64235 17.3876C5.86567 16.5556 6.41019 15.8462 7.15626 15.4155C7.90232 14.9848 8.78888 14.8679 9.62111 15.0905C10.4533 15.3131 11.1631 15.857 11.5945 16.6027L14.5195 21.669" stroke="#B8D3EF" stroke-width="2.6" stroke-linecap="round" stroke-linejoin="round"/>
<path d="M13.1776 39.0005C10.9742 37.4716 9.13744 35.473 7.7998 33.1485" stroke="#B8D3EF" stroke-width="2.6" stroke-linecap="round" stroke-linejoin="round"/>
<path d="M28.6001 5.03748C30.0833 5.03728 31.5405 5.42773 32.8249 6.16953C34.1093 6.91134 35.1757 7.97834 35.9168 9.26318" stroke="#B8D3EF" stroke-width="2.6" stroke-linecap="round" stroke-linejoin="round"/>
</svg>
