<svg width="20" height="20" viewBox="0 0 20 20" fill="none" xmlns="http://www.w3.org/2000/svg">
<path d="M10 10L5.25 6.4375C5.17238 6.37928 5.10938 6.30379 5.06598 6.21701C5.02259 6.13022 5 6.03453 5 5.9375V3.125C5 2.95924 5.06585 2.80027 5.18306 2.68306C5.30027 2.56585 5.45924 2.5 5.625 2.5H14.375C14.5408 2.5 14.6997 2.56585 14.8169 2.68306C14.9342 2.80027 15 2.95924 15 3.125V5.90947C15 6.0061 14.9776 6.10141 14.9345 6.18792C14.8915 6.27443 14.829 6.34978 14.7519 6.40805L10 10Z" stroke="#151C2F" stroke-width="1.625" stroke-linecap="round" stroke-linejoin="round"/>
<path d="M10 10L5.25 13.5625C5.17238 13.6207 5.10938 13.6962 5.06598 13.783C5.02259 13.8698 5 13.9655 5 14.0625V16.875C5 17.0408 5.06585 17.1997 5.18306 17.3169C5.30027 17.4342 5.45924 17.5 5.625 17.5H14.375C14.5408 17.5 14.6997 17.4342 14.8169 17.3169C14.9342 17.1997 15 17.0408 15 16.875V14.0905C15 13.9939 14.9776 13.8986 14.9345 13.8121C14.8915 13.7256 14.829 13.6502 14.7519 13.5919L10 10Z" stroke="#151C2F" stroke-width="1.625" stroke-linecap="round" stroke-linejoin="round"/>
<path d="M5 4.99963H15" stroke="#151C2F" stroke-width="1.625" stroke-linecap="round" stroke-linejoin="round"/>
</svg>
