<svg width="41" height="41" viewBox="0 0 41 41" fill="none" xmlns="http://www.w3.org/2000/svg">
<path opacity="0.2" d="M21.2065 30.547L29.284 35.6646C30.3165 36.3188 31.5985 35.3459 31.2921 34.1406L28.9583 24.9601C28.8926 24.7044 28.9004 24.4353 28.9808 24.1838C29.0612 23.9324 29.2109 23.7087 29.4128 23.5385L36.6562 17.5097C37.6079 16.7175 37.1167 15.138 35.8939 15.0586L26.4345 14.4447C26.1797 14.4265 25.9353 14.3363 25.7298 14.1846C25.5243 14.0329 25.3661 13.8259 25.2736 13.5878L21.7457 4.70343C21.6498 4.45068 21.4793 4.23308 21.2568 4.07953C21.0343 3.92598 20.7703 3.84375 20.5 3.84375C20.2297 3.84375 19.9657 3.92598 19.7432 4.07953C19.5208 4.23308 19.3502 4.45068 19.2543 4.70343L15.7264 13.5878C15.6339 13.8259 15.4757 14.0329 15.2702 14.1846C15.0647 14.3363 14.8204 14.4265 14.5656 14.4447L5.10611 15.0586C3.8833 15.138 3.39206 16.7175 4.34382 17.5097L11.5873 23.5385C11.7891 23.7087 11.9389 23.9324 12.0192 24.1838C12.0996 24.4353 12.1074 24.7044 12.0417 24.9601L9.87739 33.474C9.50972 34.9203 11.0481 36.0878 12.2871 35.3028L19.7935 30.547C20.0047 30.4126 20.2497 30.3412 20.5 30.3412C20.7503 30.3412 20.9953 30.4126 21.2065 30.547Z" fill="#B8D3EF"/>
<path d="M21.2065 30.547L29.284 35.6646C30.3165 36.3188 31.5985 35.3459 31.2921 34.1406L28.9583 24.9601C28.8926 24.7044 28.9004 24.4353 28.9808 24.1838C29.0612 23.9324 29.2109 23.7087 29.4128 23.5385L36.6562 17.5097C37.6079 16.7175 37.1167 15.138 35.8939 15.0586L26.4344 14.4447C26.1797 14.4265 25.9353 14.3363 25.7298 14.1846C25.5243 14.0329 25.3661 13.8259 25.2736 13.5878L21.7457 4.70343C21.6498 4.45068 21.4793 4.23308 21.2568 4.07953C21.0343 3.92598 20.7703 3.84375 20.5 3.84375C20.2297 3.84375 19.9657 3.92598 19.7432 4.07953C19.5208 4.23308 19.3502 4.45068 19.2543 4.70343L15.7264 13.5878C15.6339 13.8259 15.4757 14.0329 15.2702 14.1846C15.0647 14.3363 14.8204 14.4265 14.5656 14.4447L5.10611 15.0586C3.8833 15.138 3.39206 16.7175 4.34382 17.5097L11.5873 23.5385C11.7891 23.7087 11.9389 23.9324 12.0192 24.1838C12.0996 24.4353 12.1074 24.7044 12.0417 24.9601L9.87739 33.474C9.50972 34.9203 11.0481 36.0878 12.2871 35.3028L19.7935 30.547C20.0047 30.4126 20.2497 30.3412 20.5 30.3412C20.7503 30.3412 20.9953 30.4126 21.2065 30.547V30.547Z" stroke="#B8D3EF" stroke-width="2.5625" stroke-linecap="round" stroke-linejoin="round"/>
</svg>
