<svg width="20" height="20" viewBox="0 0 20 20" fill="none" xmlns="http://www.w3.org/2000/svg">
<path fill-rule="evenodd" clip-rule="evenodd" d="M17.0036 2.90667C15.1321 1.03333 12.6439 0.000833333 9.99333 0C4.53129 0 0.0858262 4.445 0.0833264 9.91C0.0824931 11.6567 0.539122 13.3617 1.40655 14.865L0 20L5.2529 18.6217C6.70028 19.4117 8.33014 19.8275 9.98833 19.8283H9.9925C15.4537 19.8283 19.9 15.3825 19.9025 9.9175C19.9042 7.27 18.8743 4.77917 17.0036 2.90667ZM9.99333 18.1542H9.99C8.51179 18.1542 7.06275 17.7567 5.79785 17.0058L5.49704 16.8275L2.3798 17.645L3.21223 14.605L3.01642 14.2933C2.19148 12.9817 1.75652 11.4658 1.75735 9.91C1.75902 5.36833 5.45455 1.67333 9.9975 1.67333C12.1973 1.67333 14.2655 2.53167 15.8204 4.08833C17.3752 5.64583 18.231 7.715 18.2302 9.91583C18.2276 14.4592 14.533 18.1542 9.99333 18.1542ZM14.5113 11.985C14.2638 11.8608 13.0464 11.2617 12.8189 11.1792C12.5923 11.0967 12.4273 11.055 12.2615 11.3025C12.0957 11.55 11.6224 12.1083 11.4774 12.2742C11.3332 12.4392 11.1882 12.46 10.9408 12.3358C10.6933 12.2117 9.89501 11.9508 8.94925 11.1067C8.21348 10.45 7.71602 9.63917 7.57187 9.39083C7.42772 9.1425 7.55687 9.00917 7.68019 8.88583C7.79185 8.775 7.92767 8.59667 8.05183 8.45167C8.17682 8.30833 8.21765 8.205 8.30098 8.03917C8.38347 7.87417 8.34264 7.72917 8.28014 7.605C8.21765 7.48167 7.72269 6.2625 7.51687 5.76667C7.31606 5.28333 7.11191 5.34917 6.95942 5.34167C6.81527 5.33417 6.65028 5.33333 6.48446 5.33333C6.31947 5.33333 6.05116 5.395 5.82452 5.64333C5.59787 5.89167 4.95792 6.49083 4.95792 7.70917C4.95792 8.92833 5.84535 10.1058 5.96867 10.2708C6.09199 10.4358 7.71436 12.9375 10.1983 14.01C10.7891 14.265 11.2507 14.4175 11.6099 14.5317C12.2032 14.72 12.7431 14.6933 13.1697 14.63C13.6455 14.5592 14.6346 14.0308 14.8413 13.4525C15.0479 12.8742 15.0479 12.3775 14.9854 12.275C14.9238 12.1708 14.7588 12.1092 14.5113 11.985Z" fill="#B8D3EF"/>
</svg>
